<?xml version="1.0" encoding="UTF-8" standalone="no"?> <svg width="32" height="32" viewBox="0 0 32 32" fill="none" xmlns="http://www.w3.org/2000/svg">
<path fill-rule="evenodd" clip-rule="evenodd" d="M3 9.37359C3 8.54605 3.50966 7.80397 4.28204 7.5069L15.282 3.27613C15.7442 3.09839 16.2558 3.09839 16.718 3.27613L27.718 7.5069C28.4903 7.80397 29 8.54605 29 9.37359V27C29 28.1046 28.1046 29 27 29H22V24C22 22.3431 20.6569 21 19 21H13C11.3431 21 10 22.3431 10 24V29H5C3.89543 29 3 28.1046 3 27V9.37359ZM20 24V29H12V24C12 23.4477 12.4477 23 13 23H19C19.5523 23 20 23.4477 20 24ZM16 18C17.1046 18 18 17.1046 18 16C18 14.8954 17.1046 14 16 14C14.8954 14 14 14.8954 14 16C14 17.1046 14.8954 18 16 18Z" fill="black"/>
</svg>
